<?xml version="1.0" standalone="no"?>
<!DOCTYPE svg PUBLIC "-//W3C//DTD SVG 20010904//EN"
 "http://www.w3.org/TR/2001/REC-SVG-20010904/DTD/svg10.dtd">
<svg version="1.0" xmlns="http://www.w3.org/2000/svg"
 width="512.000000pt" height="512.000000pt" viewBox="0 0 512.000000 512.000000"
 preserveAspectRatio="xMidYMid meet">
<metadata>
Created by potrace 1.14, written by Peter Selinger 2001-2017
</metadata>
<g transform="translate(0.000000,512.000000) scale(0.100000,-0.100000)"
fill="#000000" stroke="none">
<path d="M1131 4316 c-38 -21 -319 -306 -332 -337 -24 -59 8 -119 101 -188 19
-14 59 -45 87 -69 l53 -44 -44 -49 c-53 -59 -64 -95 -41 -141 22 -43 84 -96
120 -102 34 -6 91 19 106 45 5 11 15 19 21 19 5 0 103 -92 215 -205 l205 -204
-35 -83 c-19 -46 -43 -114 -52 -153 -19 -75 -25 -246 -12 -329 30 -188 121
-373 254 -512 45 -46 604 -499 1088 -881 28 -22 59 -66 103 -147 72 -132 103
-158 170 -141 12 3 283 266 601 584 612 612 608 607 581 671 -14 35 -35 48
-212 143 -26 14 -104 105 -265 306 -125 157 -233 293 -240 301 -7 8 -99 123
-204 255 -208 261 -244 299 -364 379 -167 111 -353 169 -550 169 -138 0 -219
-17 -334 -69 l-73 -34 -205 205 c-189 189 -203 205 -191 224 7 12 16 21 19 21
12 0 38 65 34 85 -2 11 -4 25 -4 31 -1 17 -81 95 -108 105 -13 5 -34 7 -46 5
-12 -3 -26 -5 -30 -5 -4 -1 -30 -21 -56 -46 l-49 -46 -38 48 c-22 26 -43 53
-49 59 -5 6 -28 34 -50 62 -59 75 -119 99 -174 68z m105 -89 c28 -32 60 -71
123 -151 17 -21 31 -43 31 -47 0 -5 -66 -74 -147 -155 -136 -135 -149 -145
-168 -134 -11 8 -64 49 -117 93 -75 61 -98 86 -98 104 0 17 40 64 149 173 166
167 178 174 227 117z m399 -152 c19 -19 35 -40 35 -47 0 -16 -561 -578 -577
-578 -19 0 -83 60 -83 78 0 20 559 582 578 582 7 0 28 -16 47 -35z m189 -415
c149 -149 198 -204 191 -214 -45 -61 -47 -66 -35 -81 19 -23 32 -19 82 29 89
86 224 135 388 141 256 10 501 -85 681 -264 25 -25 225 -271 445 -546 219
-275 404 -506 411 -513 7 -7 13 -16 13 -20 0 -3 -36 -43 -80 -88 -80 -81 -90
-104 -52 -119 11 -4 40 19 97 75 44 44 86 80 92 80 6 0 39 -16 73 -35 34 -19
64 -35 67 -35 15 0 63 -44 63 -58 0 -27 -1133 -1155 -1155 -1151 -18 4 -38 34
-102 150 l-31 56 75 74 c90 89 98 102 77 123 -8 9 -19 16 -23 16 -5 0 -45 -37
-90 -81 -88 -88 -77 -85 -136 -38 -11 10 -112 90 -225 180 -210 167 -503 400
-530 422 -8 7 -60 48 -115 92 -55 43 -119 97 -143 119 -108 102 -210 270 -252
416 -28 96 -36 286 -15 380 36 166 69 225 207 366 117 121 130 143 91 159 -18
6 -32 -6 -151 -128 l-76 -78 -203 203 c-112 112 -203 207 -203 212 0 10 346
356 356 356 4 0 97 -90 208 -200z"/>
<path d="M2394 3225 c-17 -8 -57 -34 -89 -58 l-59 -45 -47 49 c-26 27 -52 49
-57 49 -5 0 -34 -26 -65 -57 -199 -206 -290 -402 -232 -500 9 -15 65 -59 123
-98 415 -270 633 -418 670 -455 67 -66 104 -121 298 -437 199 -326 203 -331
294 -320 53 6 126 38 159 68 28 26 27 51 -9 155 -16 48 -28 89 -27 91 2 1 48
-20 102 -47 77 -38 103 -46 117 -39 57 30 177 243 182 322 6 82 1 87 -327 289
-166 103 -317 198 -335 211 l-33 25 27 5 c51 9 182 -1 235 -18 58 -19 150 -73
188 -111 13 -13 27 -24 32 -24 10 0 39 29 39 40 0 13 -88 87 -136 114 -89 50
-169 69 -290 70 l-82 0 22 36 c83 133 107 317 55 410 -66 118 -230 89 -277
-49 -14 -40 -15 -140 -2 -196 5 -22 7 -41 6 -43 -3 -2 -130 193 -300 463 -28
44 -59 88 -70 98 -22 20 -68 21 -112 2z m78 -85 c-1 -14 -12 -44 -23 -67 -17
-35 -20 -58 -17 -120 l3 -78 -77 -5 c-70 -5 -80 -8 -111 -38 -29 -28 -37 -31
-48 -20 -8 7 -29 25 -46 40 l-33 27 27 33 c144 179 335 313 325 228z m-298
-39 l28 -29 -29 -29 c-40 -42 -81 -92 -110 -135 -29 -43 -25 -54 49 -112 l51
-40 -29 -23 c-45 -36 -125 -73 -159 -73 -18 0 -41 9 -53 20 -49 46 -22 142 76
279 56 78 133 170 143 171 3 0 18 -13 33 -29z m526 -291 c89 -140 179 -278
201 -307 21 -29 39 -55 39 -58 0 -4 -58 -66 -130 -138 -99 -101 -133 -130
-143 -122 -19 14 -466 311 -555 369 l-73 47 48 25 c55 30 132 86 185 138 34
32 43 36 107 39 79 5 120 25 122 60 1 27 -2 82 -6 119 -4 28 26 101 36 90 3
-4 79 -122 169 -262z m361 140 c47 -25 62 -113 40 -221 -12 -57 -80 -200 -97
-206 -16 -5 -65 165 -71 248 -7 95 7 143 51 170 35 22 49 23 77 9z m-19 -592
c24 -18 179 -116 346 -218 l303 -185 -4 -45 c-2 -25 -12 -63 -22 -85 -18 -40
-103 -175 -110 -175 -2 0 -50 23 -106 50 -105 51 -136 59 -157 38 -20 -20 -14
-60 22 -162 34 -96 34 -97 15 -115 -34 -31 -128 -52 -155 -33 -6 4 -96 144
-199 312 -103 168 -202 323 -220 345 l-32 40 130 132 c72 73 135 133 139 133
4 0 27 -15 50 -32z"/>
</g>
</svg>
