<?xml version="1.0" standalone="no"?>
<!DOCTYPE svg PUBLIC "-//W3C//DTD SVG 20010904//EN"
 "http://www.w3.org/TR/2001/REC-SVG-20010904/DTD/svg10.dtd">
<svg version="1.0" xmlns="http://www.w3.org/2000/svg"
 width="700.000000pt" height="700.000000pt" viewBox="0 0 700.000000 700.000000"
 preserveAspectRatio="xMidYMid meet">
<metadata>
Created by potrace 1.14, written by Peter Selinger 2001-2017
</metadata>
<g transform="translate(0.000000,700.000000) scale(0.100000,-0.100000)"
fill="#000000" stroke="none">
<path d="M1132 6888 l3 -113 102 0 c56 -1 106 -4 110 -9 4 -4 8 -53 8 -109 l0
-102 113 -3 112 -3 0 113 0 113 -113 -1 -113 -1 1 114 0 113 -113 0 -113 0 3
-112z"/>
<path d="M3389 6960 c0 -22 0 -85 0 -140 0 -55 0 -113 0 -130 l1 -30 110 0
110 0 1 28 c0 37 0 262 0 290 -1 21 -4 22 -111 22 l-110 0 -1 -40z"/>
<path d="M919 6772 c-13 -2 -16 -23 -16 -112 l-1 -110 113 0 114 0 3 -112 3
-113 108 -2 c59 0 107 2 108 5 1 4 2 55 3 115 l2 107 -113 0 -113 0 0 113 0
112 -98 0 c-54 0 -105 -1 -113 -3z"/>
<path d="M4577 6411 c-87 -201 -159 -369 -160 -374 -3 -10 196 -97 204 -89 17
18 318 737 312 743 -5 4 -37 19 -73 34 -36 15 -78 33 -95 40 l-30 13 -158
-367z"/>
<path d="M6337 6770 c-11 -4 -14 -28 -15 -100 0 -52 -1 -101 -1 -107 -1 -10
-30 -13 -111 -13 -98 0 -110 -2 -111 -17 -1 -10 -2 -61 -2 -113 l-1 -95 108
-1 c63 -1 111 -6 115 -12 3 -5 5 -56 4 -111 -1 -97 0 -101 20 -102 12 0 64 -1
115 -2 l92 -2 0 113 c0 82 3 112 13 113 6 0 56 1 109 1 63 0 98 4 100 12 2 6
4 56 3 111 l0 100 -112 3 -112 3 -3 111 -3 112 -97 1 c-54 0 -104 -2 -111 -5z
m211 -332 l-3 -113 -110 0 -110 0 -1 113 -1 112 114 0 114 0 -3 -112z"/>
<path d="M2160 6734 c-47 -20 -88 -39 -92 -43 -7 -6 65 -201 93 -253 8 -15 19
-12 109 24 55 22 100 46 100 53 0 7 -11 39 -25 71 -30 68 -36 84 -60 142 -10
23 -23 42 -29 42 -6 -1 -49 -17 -96 -36z"/>
<path d="M3398 6428 c-279 -37 -520 -222 -625 -479 -43 -104 -59 -176 -62
-273 0 -27 -4 -47 -7 -44 -3 4 -33 -2 -67 -12 -286 -82 -520 -327 -588 -615
-30 -128 -12 -314 44 -452 118 -291 414 -489 727 -485 58 1 133 8 168 15 l62
14 0 -1766 0 -1766 450 0 450 0 2 225 3 225 111 0 112 0 -2 -222 c0 -123 2
-224 7 -224 4 -1 98 -2 209 -3 l202 -1 70 -171 70 -171 95 39 c53 21 99 42
104 47 4 4 -15 63 -42 129 -28 67 -51 123 -51 125 0 1 54 2 120 2 l120 -1 0
338 0 338 -22 1 c-13 0 -57 1 -98 0 -113 0 -106 -7 -104 112 1 56 2 106 3 110
0 5 20 8 44 7 23 -1 72 -1 110 -1 l67 1 0 145 0 146 80 -81 c43 -44 83 -80 87
-80 10 0 153 142 153 152 0 4 -72 80 -160 168 -144 144 -160 164 -160 194 0
32 -2 34 -32 32 -28 -2 -43 8 -121 87 l-89 89 -79 -78 c-44 -43 -78 -83 -75
-89 2 -7 -80 -10 -250 -10 -249 1 -254 1 -255 -20 -1 -11 -1 -112 -1 -225 l0
-206 -114 -1 -114 -1 0 1200 0 1201 38 -7 c20 -3 51 -9 67 -12 105 -20 267 -4
385 37 308 107 520 400 524 724 1 116 -5 159 -34 246 -89 263 -326 480 -597
549 -39 10 -43 13 -43 43 0 64 -30 197 -60 270 -56 134 -124 226 -237 317
-164 133 -388 196 -595 168z m247 -240 c217 -60 367 -224 409 -448 13 -66 12
-90 -2 -237 l-8 -83 90 -1 c109 -1 132 -4 216 -29 160 -47 304 -189 362 -358
32 -94 32 -269 0 -356 -91 -247 -318 -400 -568 -383 -101 7 -181 35 -300 104
-52 29 -100 56 -107 58 -9 4 -12 -299 -12 -1484 0 -820 3 -1493 7 -1496 7 -8
659 -8 666 0 3 3 6 103 6 222 l1 218 225 3 225 2 -1 -107 c-1 -60 -2 -111 -3
-114 0 -3 -40 -6 -88 -7 -49 0 -98 0 -110 -1 l-23 -1 0 -334 c0 -258 3 -335
13 -338 6 -2 56 -4 110 -3 80 1 97 -2 98 -15 4 -44 5 -187 1 -198 -3 -9 -57
-12 -226 -12 l-223 0 1 216 c1 119 -2 221 -5 226 -7 11 -649 16 -666 5 -4 -3
-8 -105 -8 -226 l1 -221 -226 0 -226 0 0 1830 c0 1006 -3 1832 -6 1835 -3 3
-34 -12 -69 -33 -170 -103 -259 -133 -388 -128 -47 2 -97 7 -110 10 -173 41
-318 159 -390 317 -133 294 7 640 308 759 74 29 94 32 221 35 63 1 117 4 119
6 3 2 -1 47 -8 99 -7 52 -14 103 -15 113 -4 35 14 142 35 204 11 34 42 93 69
131 137 195 377 282 605 220z"/>
<path d="M3392 5404 c-147 -34 -270 -148 -322 -298 -15 -46 -19 -78 -17 -155
3 -87 7 -104 40 -171 114 -238 390 -330 619 -208 274 146 320 523 89 731 -111
99 -260 136 -409 101z m217 -238 c97 -51 142 -192 94 -293 -39 -83 -110 -127
-203 -127 -274 1 -306 395 -37 443 46 8 104 -1 146 -23z"/>
<path d="M2375 6210 c-49 -21 -91 -43 -93 -48 -3 -9 56 -160 79 -204 8 -15 18
-13 107 23 53 23 99 43 101 45 8 7 -84 224 -94 223 -5 0 -50 -18 -100 -39z"/>
<path d="M1023 5974 c-40 -41 -73 -76 -73 -79 0 -2 45 -49 99 -104 l99 -100
80 81 80 81 -100 99 c-55 54 -103 98 -106 97 -4 0 -40 -34 -79 -75z"/>
<path d="M5673 5834 c-117 -118 -213 -218 -213 -222 0 -9 143 -152 153 -152 8
0 437 427 437 435 0 8 -151 155 -158 154 -4 0 -103 -97 -219 -215z"/>
<path d="M450 5645 l0 -115 113 0 114 0 -1 113 -1 112 -112 2 -113 2 0 -114z"/>
<path d="M1417 5584 c-42 -41 -77 -77 -77 -80 0 -2 93 -97 206 -210 l207 -206
79 80 80 79 -206 207 c-113 113 -207 206 -209 206 -2 0 -38 -34 -80 -76z"/>
<path d="M280 5530 l-54 -5 -1 -107 c0 -60 2 -108 5 -109 3 -1 52 -2 110 -2
l105 -2 3 -112 3 -113 113 0 113 0 -1 98 c-1 53 2 104 6 113 6 13 24 15 100
14 51 0 100 2 108 6 12 6 15 26 13 101 0 51 -2 100 -2 108 -1 13 -18 15 -103
12 -57 -1 -107 -4 -113 -6 -6 -2 -9 -47 -8 -112 l2 -109 -115 0 -114 0 0 113
c0 82 -3 112 -12 113 -56 4 -111 3 -158 -1z"/>
<path d="M5108 5270 l-106 -108 79 -81 78 -80 111 110 c60 61 110 113 110 117
0 12 -144 152 -155 151 -6 0 -58 -49 -117 -109z"/>
<path d="M307 4933 c-10 -17 -77 -184 -77 -192 0 -5 28 -20 63 -34 34 -14 253
-105 487 -202 234 -97 441 -183 461 -190 l36 -13 38 91 c20 51 39 97 42 103 4
11 -62 42 -247 117 -47 19 -244 100 -438 181 -194 80 -354 146 -357 146 -2 0
-6 -3 -8 -7z"/>
<path d="M6580 4899 c-52 -21 -104 -43 -115 -49 -11 -5 -32 -14 -47 -19 l-27
-10 26 -63 c14 -35 33 -82 44 -104 l19 -42 141 58 c77 32 144 61 147 64 8 9
-71 199 -83 202 -6 1 -53 -15 -105 -37z"/>
<path d="M6115 4709 c-22 -10 -141 -60 -265 -110 -124 -50 -238 -97 -255 -104
-16 -8 -103 -43 -193 -80 -230 -93 -336 -137 -341 -141 -5 -4 68 -185 80 -198
5 -6 665 256 964 383 22 10 60 26 85 36 25 10 48 21 53 25 8 7 -71 210 -82
209 -3 0 -24 -9 -46 -20z"/>
<path d="M1667 4267 c-20 -50 -37 -97 -37 -103 0 -9 913 -396 970 -411 11 -3
27 23 57 97 l42 102 -52 23 c-109 49 -927 385 -936 385 -3 0 -23 -42 -44 -93z"/>
<path d="M4557 4070 c-131 -54 -241 -100 -244 -103 -6 -6 63 -186 76 -200 6
-6 463 174 499 197 12 7 -69 206 -83 205 -5 0 -117 -45 -248 -99z"/>
<path d="M38 3612 l-38 -3 0 -110 c0 -97 2 -109 18 -110 22 -1 403 0 420 0 9
1 12 30 12 111 0 107 -1 110 -22 111 -83 3 -360 3 -390 1z"/>
<path d="M687 3608 c-12 -6 -15 -203 -3 -215 4 -4 838 -7 986 -4 l25 1 0 110
0 110 -25 1 c-185 4 -974 2 -983 -3z"/>
<path d="M1943 3612 c-22 -3 -23 -7 -23 -113 l0 -109 38 -1 c42 0 598 0 623 0
13 1 16 17 16 111 l0 110 -31 1 c-179 2 -606 3 -623 1z"/>
<path d="M4479 3612 l-76 -3 0 -109 c0 -105 1 -110 21 -111 12 0 291 0 621 -1
l600 0 0 111 c0 61 -2 111 -5 112 -20 2 -1100 3 -1161 1z"/>
<path d="M5918 3612 l-48 -3 0 -110 0 -109 53 -1 c62 0 1034 0 1060 1 15 0 17
12 17 110 0 98 -2 110 -17 111 -62 2 -1027 3 -1065 1z"/>
<path d="M2335 3140 c-143 -59 -271 -113 -285 -119 -14 -5 -97 -40 -185 -76
-88 -36 -173 -72 -190 -79 -16 -8 -63 -26 -102 -42 -40 -16 -73 -33 -73 -39 0
-22 80 -200 89 -198 8 2 935 385 1077 445 l32 13 -40 103 c-23 56 -46 102 -52
101 -6 0 -128 -49 -271 -109z"/>
<path d="M4351 3167 c-54 -133 -68 -113 136 -197 98 -40 192 -79 208 -86 17
-7 95 -40 173 -73 l144 -60 18 42 c52 121 68 163 62 168 -10 8 -689 289 -699
289 -4 0 -23 -38 -42 -83z"/>
<path d="M2595 2755 l-157 -157 78 -78 c65 -65 81 -77 93 -67 8 7 79 76 158
154 l143 142 -79 81 -79 81 -157 -156z"/>
<path d="M4168 2829 l-77 -80 187 -187 c103 -103 194 -192 203 -199 13 -10 28
0 93 66 l78 79 -201 201 c-111 110 -202 201 -204 200 -1 0 -37 -36 -79 -80z"/>
<path d="M5323 2802 c-73 -166 -77 -148 37 -194 52 -21 104 -42 115 -47 11 -5
99 -41 195 -80 96 -40 184 -76 195 -81 116 -55 820 -338 826 -333 4 5 25 51
46 103 l40 96 -116 48 c-64 26 -285 117 -491 203 -206 85 -388 161 -405 168
-16 7 -55 23 -85 35 -30 12 -68 28 -85 35 -16 8 -79 34 -138 59 l-109 45 -25
-57z"/>
<path d="M741 2479 c-278 -115 -507 -211 -510 -214 -5 -6 69 -194 80 -201 4
-2 164 61 356 140 191 79 366 152 388 161 22 9 49 20 60 24 22 10 57 24 158
66 37 15 67 31 67 35 0 15 -79 195 -87 197 -4 1 -235 -92 -512 -208z"/>
<path d="M1787 1948 c-380 -382 -436 -442 -425 -456 19 -24 139 -142 144 -142
6 0 884 879 884 885 0 8 -151 155 -158 154 -4 -1 -204 -199 -445 -441z"/>
<path d="M2596 1615 c-69 -168 -126 -309 -126 -314 0 -5 45 -27 99 -49 72 -29
102 -37 110 -29 6 6 11 14 11 19 0 4 54 138 121 299 66 161 117 295 112 299
-10 9 -180 80 -192 80 -4 0 -65 -137 -135 -305z"/>
<path d="M233 1801 c-4 -3 -8 -53 -8 -111 l0 -105 112 -3 112 -3 3 -112 3
-112 110 0 110 0 2 113 1 112 -114 0 -114 0 0 113 0 113 -105 1 c-57 0 -108
-3 -112 -6z"/>
<path d="M6329 1806 c-1 0 -3 -48 -5 -106 -1 -58 -3 -108 -3 -112 -1 -5 -50
-8 -111 -8 -60 0 -110 -3 -111 -7 -3 -25 -4 -200 -2 -208 2 -7 47 -10 116 -10
l112 1 -2 -113 -2 -113 115 0 114 0 0 113 0 113 103 -1 c56 -1 107 1 112 6 6
4 10 52 10 111 l-1 103 -112 3 -112 3 0 112 0 113 -110 1 c-60 0 -111 0 -111
-1z m219 -338 l-3 -112 -103 -1 c-59 0 -107 4 -111 10 -5 5 -9 56 -8 113 l0
102 114 0 114 0 -3 -112z"/>
<path d="M0 1468 l0 -113 110 0 c61 -1 111 2 111 5 1 3 3 53 3 113 l2 107
-113 0 -113 0 0 -112z"/>
<path d="M5517 1480 l-78 -79 226 -226 c124 -124 227 -225 230 -225 5 0 155
150 155 155 0 5 -448 455 -452 455 -2 -1 -38 -37 -81 -80z"/>
<path d="M228 1335 c-2 -11 -3 -60 -3 -110 l1 -90 112 -3 112 -3 0 113 0 114
-109 -1 c-102 0 -110 -1 -113 -20z"/>
<path d="M1063 1223 c-129 -129 -124 -111 -50 -185 35 -34 71 -69 80 -76 14
-12 28 -1 117 87 55 56 100 103 100 105 0 6 -149 156 -154 156 -2 0 -44 -39
-93 -87z"/>
<path d="M2360 1047 c0 -2 -59 -145 -131 -318 -143 -346 -173 -419 -167 -423
1 -1 35 -15 73 -30 39 -15 82 -34 97 -42 24 -13 28 -13 36 3 8 14 162 386 288
692 8 19 13 36 11 38 -7 6 -190 83 -199 83 -4 0 -8 -1 -8 -3z"/>
<path d="M1473 897 c-3 -5 -4 -55 -4 -111 1 -76 -2 -105 -11 -108 -7 -2 -59
-3 -114 -2 l-102 2 2 -112 1 -111 110 0 110 0 3 111 3 112 100 -2 c56 0 106 2
112 6 14 8 16 207 2 216 -14 9 -206 8 -212 -1z"/>
<path d="M1694 564 l-1 -114 114 0 113 0 0 113 0 113 -113 1 -112 1 -1 -114z"/>
<path d="M5534 669 c-3 -5 -5 -37 -4 -72 1 -34 1 -81 1 -104 l-1 -42 -112 -3
-111 -3 -1 -107 c-1 -64 3 -109 9 -111 5 -2 56 -2 113 -2 l102 2 1 -46 c1 -25
0 -76 0 -113 l-2 -68 115 0 114 0 -1 113 -2 112 -100 1 c-55 1 -105 2 -111 3
-8 1 -12 37 -13 111 l-2 110 115 0 114 0 0 -105 c0 -58 2 -109 6 -112 4 -4 52
-7 107 -8 81 0 102 3 108 15 4 8 7 58 7 110 l-1 95 -113 3 -112 3 -1 37 c0 20
-1 71 -1 113 l0 75 -109 1 c-60 0 -112 -3 -115 -8z"/>
<path d="M1468 355 c-4 -137 -10 -130 102 -129 52 1 102 2 110 3 12 1 15 20
15 108 l-1 108 -111 3 -112 3 -3 -96z"/>
<path d="M3389 308 c-1 -31 0 -267 1 -295 0 -10 29 -13 113 -13 l112 0 -2 143
c-1 78 -2 154 -2 170 l-1 27 -110 0 -110 0 -1 -32z"/>
</g>
</svg>
